<svg xmlns="http://www.w3.org/2000/svg" xmlns:xlink="http://www.w3.org/1999/xlink" version="1.1" id="Layer_4" x="0px" y="0px" width="100px" height="100px" viewBox="0 0 100 100" enable-background="new 0 0 100 100" xml:space="preserve">
<path d="M20,81.5v-1.166c0,0,8-3.167,9.5-3.167c1.907,0-1.598,0,5.5,0l-0.031-29.269l-10-17.667c0,0-2.157-5.952-0.969-9.897  c0.955-3.173,4.44-6,9.917-6c5.477,0,8.5,2.25,8.917,6c0,0,0.458,4.854,4.333,8.667c4.372,4.302,35,47.167,35,47.167  s3.146,3.958-2.662,1.686c0,0,5.495,4.814-2.505,4.814h-5.833c0,0-3.541,0.688-12.5-13c0,0-4.501-8.667-4.334,0  s-5.5,0.167-5.5,0.167v7.322l3,0.011l3,4.333H20z M27.875,26c-2.375,0,0.394,3.513,0.394,3.513l8.875,15.375  c0,0,4.106,8.612,9.606,17.987S52.667,70.75,52.292,63s5.083-0.25,5.083-0.25C68.418,79.646,70,79.125,70,79.125  c10.875,4.375,7-1.75,7-1.75s-5.75-8.125-9.75-11s-25.125-19.25-27.875-21.479s-5-9.896,1.64-11.021s3.36,1.375,3.36,1.375  c-7.633,2.571-3.042,7.083-3.042,7.083c18.137,15.54,18.137,15.54,24.542,19.792c6.342,4.211,2.875,0,2.875,0L41.015,25.583h-3.598  L33.839,34l-3.589-8C30.25,26,30.25,26,27.875,26z M38,54v23.125h7.375v-8.5L38,54z M26.313,23.516l2.354-0.016  c0,0,1.85-3.947,4.167,0c1,1.704,2,0.083,2,0.083s2.292-4.708,4.221-0.296L41,23.281l0.021-0.218c0-3.509-3.292-6.354-7.354-6.354  s-7.354,2.845-7.354,6.354V23.516z"/>
</svg>